<svg width="20" height="20" viewBox="0 0 20 20" fill="none" xmlns="http://www.w3.org/2000/svg">
<path d="M1.75 10H18.25M10 1.75V18.25M2.66667 13.6667L6.33333 17.3333M2.66667 17.3333L6.33333 13.6667M13.6667 2.66667L17.3333 6.33333M13.6667 6.33333L17.3333 2.66667M2.66667 4.5C2.66667 4.98623 2.85982 5.45255 3.20364 5.79636C3.54745 6.14018 4.01377 6.33333 4.5 6.33333C4.98623 6.33333 5.45255 6.14018 5.79636 5.79636C6.14018 5.45255 6.33333 4.98623 6.33333 4.5C6.33333 4.01377 6.14018 3.54745 5.79636 3.20364C5.45255 2.85982 4.98623 2.66667 4.5 2.66667C4.01377 2.66667 3.54745 2.85982 3.20364 3.20364C2.85982 3.54745 2.66667 4.01377 2.66667 4.5ZM13.6667 15.5C13.6667 15.9862 13.8598 16.4525 14.2036 16.7964C14.5475 17.1402 15.0138 17.3333 15.5 17.3333C15.9862 17.3333 16.4525 17.1402 16.7964 16.7964C17.1402 16.4525 17.3333 15.9862 17.3333 15.5C17.3333 15.0138 17.1402 14.5475 16.7964 14.2036C16.4525 13.8598 15.9862 13.6667 15.5 13.6667C15.0138 13.6667 14.5475 13.8598 14.2036 14.2036C13.8598 14.5475 13.6667 15.0138 13.6667 15.5Z" stroke="#6FB7FF" stroke-width="2" stroke-linecap="round" stroke-linejoin="round"/>
</svg>
